<mxfile host="Electron" modified="2024-07-01T21:56:04.751Z" agent="Mozilla/5.0 (Windows NT 10.0; Win64; x64) AppleWebKit/537.36 (KHTML, like Gecko) draw.io/24.5.1 Chrome/124.0.6367.207 Electron/30.0.6 Safari/537.36" etag="DFMuLax7GwhAZVThOS-b" version="24.5.1" type="device">
  <diagram name="Sayfa -1" id="v9doxOc5a0_JCZSUFdD2">
    <mxGraphModel dx="1389" dy="589" grid="1" gridSize="10" guides="1" tooltips="1" connect="1" arrows="1" fold="1" page="0" pageScale="1" pageWidth="827" pageHeight="1169" background="none" math="0" shadow="0">
      <root>
        <mxCell id="0" />
        <mxCell id="1" parent="0" />
        <mxCell id="D5yejVB-vVZnaP33-RKD-3" style="edgeStyle=orthogonalEdgeStyle;rounded=0;orthogonalLoop=1;jettySize=auto;html=1;exitX=0.124;exitY=0.008;exitDx=0;exitDy=0;entryX=0.5;entryY=1;entryDx=0;entryDy=0;exitPerimeter=0;" edge="1" parent="1" source="D5yejVB-vVZnaP33-RKD-1" target="D5yejVB-vVZnaP33-RKD-4">
          <mxGeometry relative="1" as="geometry">
            <mxPoint x="110" y="80" as="targetPoint" />
          </mxGeometry>
        </mxCell>
        <mxCell id="D5yejVB-vVZnaP33-RKD-24" style="edgeStyle=orthogonalEdgeStyle;rounded=0;orthogonalLoop=1;jettySize=auto;html=1;exitX=1;exitY=0.25;exitDx=0;exitDy=0;entryX=0;entryY=0.5;entryDx=0;entryDy=0;" edge="1" parent="1" source="D5yejVB-vVZnaP33-RKD-1" target="D5yejVB-vVZnaP33-RKD-40">
          <mxGeometry relative="1" as="geometry">
            <mxPoint x="380" y="147.5" as="targetPoint" />
            <Array as="points">
              <mxPoint x="300" y="145" />
              <mxPoint x="300" y="148" />
              <mxPoint x="320" y="148" />
            </Array>
          </mxGeometry>
        </mxCell>
        <mxCell id="D5yejVB-vVZnaP33-RKD-36" style="edgeStyle=orthogonalEdgeStyle;rounded=0;orthogonalLoop=1;jettySize=auto;html=1;exitX=0.5;exitY=1;exitDx=0;exitDy=0;entryX=0.5;entryY=0;entryDx=0;entryDy=0;" edge="1" parent="1" source="D5yejVB-vVZnaP33-RKD-1" target="D5yejVB-vVZnaP33-RKD-35">
          <mxGeometry relative="1" as="geometry" />
        </mxCell>
        <mxCell id="D5yejVB-vVZnaP33-RKD-71" style="edgeStyle=orthogonalEdgeStyle;rounded=0;orthogonalLoop=1;jettySize=auto;html=1;exitX=1;exitY=1;exitDx=0;exitDy=0;entryX=0;entryY=0.5;entryDx=0;entryDy=0;" edge="1" parent="1" source="D5yejVB-vVZnaP33-RKD-1" target="D5yejVB-vVZnaP33-RKD-70">
          <mxGeometry relative="1" as="geometry" />
        </mxCell>
        <mxCell id="D5yejVB-vVZnaP33-RKD-1" value="User" style="whiteSpace=wrap;html=1;align=center;" vertex="1" parent="1">
          <mxGeometry x="160" y="140" width="60" height="20" as="geometry" />
        </mxCell>
        <mxCell id="D5yejVB-vVZnaP33-RKD-61" style="edgeStyle=orthogonalEdgeStyle;rounded=0;orthogonalLoop=1;jettySize=auto;html=1;exitX=0.75;exitY=1;exitDx=0;exitDy=0;entryX=0.5;entryY=0;entryDx=0;entryDy=0;" edge="1" parent="1" source="D5yejVB-vVZnaP33-RKD-2" target="D5yejVB-vVZnaP33-RKD-60">
          <mxGeometry relative="1" as="geometry" />
        </mxCell>
        <mxCell id="D5yejVB-vVZnaP33-RKD-92" style="edgeStyle=orthogonalEdgeStyle;rounded=0;orthogonalLoop=1;jettySize=auto;html=1;exitX=0.25;exitY=0;exitDx=0;exitDy=0;entryX=0.5;entryY=1;entryDx=0;entryDy=0;" edge="1" parent="1" source="D5yejVB-vVZnaP33-RKD-2" target="D5yejVB-vVZnaP33-RKD-90">
          <mxGeometry relative="1" as="geometry">
            <Array as="points">
              <mxPoint x="580" y="140" />
              <mxPoint x="580" y="120" />
              <mxPoint x="560" y="120" />
              <mxPoint x="560" y="130" />
              <mxPoint x="525" y="130" />
            </Array>
          </mxGeometry>
        </mxCell>
        <mxCell id="D5yejVB-vVZnaP33-RKD-2" value="Movie" style="whiteSpace=wrap;html=1;align=center;" vertex="1" parent="1">
          <mxGeometry x="580" y="140" width="40" height="20" as="geometry" />
        </mxCell>
        <mxCell id="D5yejVB-vVZnaP33-RKD-4" value="name" style="ellipse;whiteSpace=wrap;html=1;align=center;" vertex="1" parent="1">
          <mxGeometry x="100" y="70" width="42" height="19.75" as="geometry" />
        </mxCell>
        <mxCell id="D5yejVB-vVZnaP33-RKD-5" style="edgeStyle=orthogonalEdgeStyle;rounded=0;orthogonalLoop=1;jettySize=auto;html=1;exitX=0.219;exitY=-0.009;exitDx=0;exitDy=0;entryX=0.5;entryY=1;entryDx=0;entryDy=0;exitPerimeter=0;" edge="1" parent="1" target="D5yejVB-vVZnaP33-RKD-6" source="D5yejVB-vVZnaP33-RKD-1">
          <mxGeometry relative="1" as="geometry">
            <mxPoint x="180" y="59.75" as="targetPoint" />
            <mxPoint x="230" y="99.75" as="sourcePoint" />
          </mxGeometry>
        </mxCell>
        <mxCell id="D5yejVB-vVZnaP33-RKD-6" value="surname" style="ellipse;whiteSpace=wrap;html=1;align=center;" vertex="1" parent="1">
          <mxGeometry x="120" y="40" width="60" height="19.75" as="geometry" />
        </mxCell>
        <mxCell id="D5yejVB-vVZnaP33-RKD-7" style="edgeStyle=orthogonalEdgeStyle;rounded=0;orthogonalLoop=1;jettySize=auto;html=1;exitX=0.395;exitY=-0.001;exitDx=0;exitDy=0;entryX=0.5;entryY=1;entryDx=0;entryDy=0;exitPerimeter=0;" edge="1" parent="1" target="D5yejVB-vVZnaP33-RKD-8" source="D5yejVB-vVZnaP33-RKD-1">
          <mxGeometry relative="1" as="geometry">
            <mxPoint x="250" y="59.75" as="targetPoint" />
            <mxPoint x="245" y="120" as="sourcePoint" />
          </mxGeometry>
        </mxCell>
        <mxCell id="D5yejVB-vVZnaP33-RKD-8" value="birth_date" style="ellipse;whiteSpace=wrap;html=1;align=center;" vertex="1" parent="1">
          <mxGeometry x="190" y="40" width="60" height="19.75" as="geometry" />
        </mxCell>
        <mxCell id="D5yejVB-vVZnaP33-RKD-104" style="edgeStyle=orthogonalEdgeStyle;rounded=0;orthogonalLoop=1;jettySize=auto;html=1;exitX=0;exitY=0.5;exitDx=0;exitDy=0;entryX=1;entryY=0.5;entryDx=0;entryDy=0;" edge="1" parent="1" source="D5yejVB-vVZnaP33-RKD-13" target="D5yejVB-vVZnaP33-RKD-103">
          <mxGeometry relative="1" as="geometry" />
        </mxCell>
        <mxCell id="D5yejVB-vVZnaP33-RKD-13" value="Wallet" style="shape=ext;margin=3;double=1;whiteSpace=wrap;html=1;align=center;" vertex="1" parent="1">
          <mxGeometry x="142" y="260" width="58" height="30" as="geometry" />
        </mxCell>
        <mxCell id="D5yejVB-vVZnaP33-RKD-16" style="edgeStyle=orthogonalEdgeStyle;rounded=0;orthogonalLoop=1;jettySize=auto;html=1;exitX=0.302;exitY=-0.036;exitDx=0;exitDy=0;entryX=0.5;entryY=1;entryDx=0;entryDy=0;exitPerimeter=0;" edge="1" parent="1" target="D5yejVB-vVZnaP33-RKD-17" source="D5yejVB-vVZnaP33-RKD-1">
          <mxGeometry relative="1" as="geometry">
            <mxPoint x="211" y="19.25" as="targetPoint" />
            <mxPoint x="270" y="59.25" as="sourcePoint" />
          </mxGeometry>
        </mxCell>
        <mxCell id="D5yejVB-vVZnaP33-RKD-17" value="&lt;u&gt;user_id&lt;/u&gt;" style="ellipse;whiteSpace=wrap;html=1;align=center;" vertex="1" parent="1">
          <mxGeometry x="151" y="10" width="60" height="19.25" as="geometry" />
        </mxCell>
        <mxCell id="D5yejVB-vVZnaP33-RKD-21" value="balance" style="ellipse;whiteSpace=wrap;html=1;align=center;" vertex="1" parent="1">
          <mxGeometry x="50" y="240" width="50" height="20" as="geometry" />
        </mxCell>
        <mxCell id="D5yejVB-vVZnaP33-RKD-22" style="edgeStyle=orthogonalEdgeStyle;rounded=0;orthogonalLoop=1;jettySize=auto;html=1;exitX=-0.029;exitY=0.25;exitDx=0;exitDy=0;entryX=0.957;entryY=0.693;entryDx=0;entryDy=0;entryPerimeter=0;exitPerimeter=0;" edge="1" parent="1" target="D5yejVB-vVZnaP33-RKD-21" source="D5yejVB-vVZnaP33-RKD-13">
          <mxGeometry relative="1" as="geometry">
            <mxPoint x="122" y="290" as="sourcePoint" />
          </mxGeometry>
        </mxCell>
        <mxCell id="D5yejVB-vVZnaP33-RKD-25" style="edgeStyle=orthogonalEdgeStyle;rounded=0;orthogonalLoop=1;jettySize=auto;html=1;exitX=1;exitY=0.5;exitDx=0;exitDy=0;entryX=0;entryY=0.25;entryDx=0;entryDy=0;" edge="1" parent="1" source="D5yejVB-vVZnaP33-RKD-40" target="D5yejVB-vVZnaP33-RKD-2">
          <mxGeometry relative="1" as="geometry">
            <mxPoint x="450" y="147.5" as="sourcePoint" />
          </mxGeometry>
        </mxCell>
        <mxCell id="D5yejVB-vVZnaP33-RKD-26" value="r_star" style="ellipse;whiteSpace=wrap;html=1;align=center;" vertex="1" parent="1">
          <mxGeometry x="360" y="100" width="60" height="20" as="geometry" />
        </mxCell>
        <mxCell id="D5yejVB-vVZnaP33-RKD-29" value="r_date" style="ellipse;whiteSpace=wrap;html=1;align=center;" vertex="1" parent="1">
          <mxGeometry x="340" y="170" width="60" height="20" as="geometry" />
        </mxCell>
        <mxCell id="D5yejVB-vVZnaP33-RKD-30" style="edgeStyle=orthogonalEdgeStyle;rounded=0;orthogonalLoop=1;jettySize=auto;html=1;exitX=0;exitY=1;exitDx=0;exitDy=0;entryX=0.672;entryY=0.079;entryDx=0;entryDy=0;entryPerimeter=0;" edge="1" parent="1" target="D5yejVB-vVZnaP33-RKD-29">
          <mxGeometry relative="1" as="geometry">
            <mxPoint x="380" y="155" as="sourcePoint" />
          </mxGeometry>
        </mxCell>
        <mxCell id="D5yejVB-vVZnaP33-RKD-32" style="edgeStyle=orthogonalEdgeStyle;rounded=0;orthogonalLoop=1;jettySize=auto;html=1;exitX=0.126;exitY=0.021;exitDx=0;exitDy=0;entryX=0.5;entryY=1;entryDx=0;entryDy=0;exitPerimeter=0;" edge="1" parent="1" target="D5yejVB-vVZnaP33-RKD-26">
          <mxGeometry relative="1" as="geometry">
            <mxPoint x="388.82000000000016" y="140.31499999999994" as="sourcePoint" />
            <mxPoint x="390" y="182" as="targetPoint" />
            <Array as="points">
              <mxPoint x="390" y="140" />
              <mxPoint x="390" y="130" />
              <mxPoint x="390" y="130" />
            </Array>
          </mxGeometry>
        </mxCell>
        <mxCell id="D5yejVB-vVZnaP33-RKD-37" style="edgeStyle=orthogonalEdgeStyle;rounded=0;orthogonalLoop=1;jettySize=auto;html=1;exitX=0.5;exitY=1;exitDx=0;exitDy=0;entryX=0.5;entryY=0;entryDx=0;entryDy=0;" edge="1" parent="1" source="D5yejVB-vVZnaP33-RKD-35" target="D5yejVB-vVZnaP33-RKD-13">
          <mxGeometry relative="1" as="geometry" />
        </mxCell>
        <mxCell id="D5yejVB-vVZnaP33-RKD-35" value="has" style="shape=rhombus;double=1;perimeter=rhombusPerimeter;whiteSpace=wrap;html=1;align=center;" vertex="1" parent="1">
          <mxGeometry x="151" y="200" width="58" height="30" as="geometry" />
        </mxCell>
        <mxCell id="D5yejVB-vVZnaP33-RKD-40" value="rates" style="shape=rhombus;perimeter=rhombusPerimeter;whiteSpace=wrap;html=1;align=center;" vertex="1" parent="1">
          <mxGeometry x="340" y="140" width="120" height="20" as="geometry" />
        </mxCell>
        <mxCell id="D5yejVB-vVZnaP33-RKD-42" style="edgeStyle=orthogonalEdgeStyle;rounded=0;orthogonalLoop=1;jettySize=auto;html=1;exitX=0.588;exitY=0;exitDx=0;exitDy=0;entryX=0.5;entryY=1;entryDx=0;entryDy=0;exitPerimeter=0;" edge="1" parent="1" target="D5yejVB-vVZnaP33-RKD-43" source="D5yejVB-vVZnaP33-RKD-1">
          <mxGeometry relative="1" as="geometry">
            <mxPoint x="296" y="94.49" as="targetPoint" />
            <mxPoint x="230" y="174.74" as="sourcePoint" />
          </mxGeometry>
        </mxCell>
        <mxCell id="D5yejVB-vVZnaP33-RKD-43" value="pw_hash" style="ellipse;whiteSpace=wrap;html=1;align=center;" vertex="1" parent="1">
          <mxGeometry x="230" y="70" width="64" height="24.49" as="geometry" />
        </mxCell>
        <mxCell id="D5yejVB-vVZnaP33-RKD-46" style="edgeStyle=orthogonalEdgeStyle;rounded=0;orthogonalLoop=1;jettySize=auto;html=1;exitX=0.354;exitY=0.867;exitDx=0;exitDy=0;entryX=0.41;entryY=-0.018;entryDx=0;entryDy=0;exitPerimeter=0;entryPerimeter=0;" edge="1" parent="1" source="D5yejVB-vVZnaP33-RKD-35" target="D5yejVB-vVZnaP33-RKD-13">
          <mxGeometry relative="1" as="geometry">
            <mxPoint x="169" y="230" as="sourcePoint" />
            <mxPoint x="160" y="260" as="targetPoint" />
          </mxGeometry>
        </mxCell>
        <mxCell id="D5yejVB-vVZnaP33-RKD-47" value="name" style="ellipse;whiteSpace=wrap;html=1;align=center;" vertex="1" parent="1">
          <mxGeometry x="550" y="59.75" width="50" height="20" as="geometry" />
        </mxCell>
        <mxCell id="D5yejVB-vVZnaP33-RKD-48" style="edgeStyle=orthogonalEdgeStyle;rounded=0;orthogonalLoop=1;jettySize=auto;html=1;exitX=0.25;exitY=0;exitDx=0;exitDy=0;entryX=0.591;entryY=1.055;entryDx=0;entryDy=0;entryPerimeter=0;" edge="1" parent="1" source="D5yejVB-vVZnaP33-RKD-2" target="D5yejVB-vVZnaP33-RKD-47">
          <mxGeometry relative="1" as="geometry" />
        </mxCell>
        <mxCell id="D5yejVB-vVZnaP33-RKD-49" value="genre" style="ellipse;whiteSpace=wrap;html=1;align=center;" vertex="1" parent="1">
          <mxGeometry x="575" y="29.75" width="50" height="20" as="geometry" />
        </mxCell>
        <mxCell id="D5yejVB-vVZnaP33-RKD-50" style="edgeStyle=orthogonalEdgeStyle;rounded=0;orthogonalLoop=1;jettySize=auto;html=1;exitX=0.25;exitY=0;exitDx=0;exitDy=0;entryX=0.591;entryY=0.951;entryDx=0;entryDy=0;entryPerimeter=0;" edge="1" parent="1" target="D5yejVB-vVZnaP33-RKD-49" source="D5yejVB-vVZnaP33-RKD-2">
          <mxGeometry relative="1" as="geometry">
            <mxPoint x="650" y="140" as="sourcePoint" />
            <Array as="points">
              <mxPoint x="600" y="140" />
              <mxPoint x="600" y="95" />
              <mxPoint x="605" y="95" />
            </Array>
          </mxGeometry>
        </mxCell>
        <mxCell id="D5yejVB-vVZnaP33-RKD-51" value="actors_actresses" style="ellipse;whiteSpace=wrap;html=1;align=center;" vertex="1" parent="1">
          <mxGeometry x="635" y="70" width="100" height="30" as="geometry" />
        </mxCell>
        <mxCell id="D5yejVB-vVZnaP33-RKD-53" style="edgeStyle=orthogonalEdgeStyle;rounded=0;orthogonalLoop=1;jettySize=auto;html=1;exitX=0.5;exitY=0;exitDx=0;exitDy=0;entryX=0.295;entryY=0.955;entryDx=0;entryDy=0;entryPerimeter=0;" edge="1" parent="1" source="D5yejVB-vVZnaP33-RKD-2" target="D5yejVB-vVZnaP33-RKD-51">
          <mxGeometry relative="1" as="geometry">
            <Array as="points">
              <mxPoint x="620" y="140" />
              <mxPoint x="620" y="120" />
              <mxPoint x="665" y="120" />
            </Array>
          </mxGeometry>
        </mxCell>
        <mxCell id="D5yejVB-vVZnaP33-RKD-54" value="overall_rate" style="ellipse;whiteSpace=wrap;html=1;align=center;" vertex="1" parent="1">
          <mxGeometry x="650" y="120" width="70" height="20" as="geometry" />
        </mxCell>
        <mxCell id="D5yejVB-vVZnaP33-RKD-56" value="year" style="ellipse;whiteSpace=wrap;html=1;align=center;" vertex="1" parent="1">
          <mxGeometry x="650" y="140" width="50" height="22.12" as="geometry" />
        </mxCell>
        <mxCell id="D5yejVB-vVZnaP33-RKD-59" style="edgeStyle=orthogonalEdgeStyle;rounded=0;orthogonalLoop=1;jettySize=auto;html=1;exitX=1;exitY=0.25;exitDx=0;exitDy=0;entryX=0.01;entryY=0.41;entryDx=0;entryDy=0;entryPerimeter=0;" edge="1" parent="1" source="D5yejVB-vVZnaP33-RKD-2" target="D5yejVB-vVZnaP33-RKD-56">
          <mxGeometry relative="1" as="geometry" />
        </mxCell>
        <mxCell id="D5yejVB-vVZnaP33-RKD-64" style="edgeStyle=orthogonalEdgeStyle;rounded=0;orthogonalLoop=1;jettySize=auto;html=1;exitX=1;exitY=1;exitDx=0;exitDy=0;" edge="1" parent="1" source="D5yejVB-vVZnaP33-RKD-60">
          <mxGeometry relative="1" as="geometry">
            <mxPoint x="670" y="200" as="targetPoint" />
          </mxGeometry>
        </mxCell>
        <mxCell id="D5yejVB-vVZnaP33-RKD-60" value="information" style="ellipse;whiteSpace=wrap;html=1;align=center;" vertex="1" parent="1">
          <mxGeometry x="590" y="170" width="70" height="20" as="geometry" />
        </mxCell>
        <mxCell id="D5yejVB-vVZnaP33-RKD-62" style="edgeStyle=orthogonalEdgeStyle;rounded=0;orthogonalLoop=1;jettySize=auto;html=1;exitX=1;exitY=0.5;exitDx=0;exitDy=0;entryX=-0.003;entryY=0.59;entryDx=0;entryDy=0;entryPerimeter=0;" edge="1" parent="1" target="D5yejVB-vVZnaP33-RKD-63" source="D5yejVB-vVZnaP33-RKD-60">
          <mxGeometry relative="1" as="geometry">
            <mxPoint x="700" y="165" as="sourcePoint" />
          </mxGeometry>
        </mxCell>
        <mxCell id="D5yejVB-vVZnaP33-RKD-63" value="city" style="ellipse;whiteSpace=wrap;html=1;align=center;" vertex="1" parent="1">
          <mxGeometry x="680" y="167.5" width="30" height="25" as="geometry" />
        </mxCell>
        <mxCell id="D5yejVB-vVZnaP33-RKD-65" value="cinema" style="ellipse;whiteSpace=wrap;html=1;align=center;" vertex="1" parent="1">
          <mxGeometry x="650" y="200" width="50" height="17.5" as="geometry" />
        </mxCell>
        <mxCell id="D5yejVB-vVZnaP33-RKD-66" value="day" style="ellipse;whiteSpace=wrap;html=1;align=center;" vertex="1" parent="1">
          <mxGeometry x="610" y="210" width="40" height="20" as="geometry" />
        </mxCell>
        <mxCell id="D5yejVB-vVZnaP33-RKD-67" style="edgeStyle=orthogonalEdgeStyle;rounded=0;orthogonalLoop=1;jettySize=auto;html=1;exitX=0.563;exitY=0.994;exitDx=0;exitDy=0;entryX=0.809;entryY=0.106;entryDx=0;entryDy=0;entryPerimeter=0;exitPerimeter=0;" edge="1" parent="1" source="D5yejVB-vVZnaP33-RKD-60" target="D5yejVB-vVZnaP33-RKD-66">
          <mxGeometry relative="1" as="geometry">
            <Array as="points">
              <mxPoint x="629" y="200" />
              <mxPoint x="642" y="200" />
            </Array>
          </mxGeometry>
        </mxCell>
        <mxCell id="D5yejVB-vVZnaP33-RKD-68" value="show_times" style="ellipse;whiteSpace=wrap;html=1;align=center;" vertex="1" parent="1">
          <mxGeometry x="565" y="230" width="70" height="20" as="geometry" />
        </mxCell>
        <mxCell id="D5yejVB-vVZnaP33-RKD-69" style="edgeStyle=orthogonalEdgeStyle;rounded=0;orthogonalLoop=1;jettySize=auto;html=1;exitX=0.5;exitY=1;exitDx=0;exitDy=0;entryX=0.477;entryY=-0.038;entryDx=0;entryDy=0;entryPerimeter=0;" edge="1" parent="1" source="D5yejVB-vVZnaP33-RKD-60" target="D5yejVB-vVZnaP33-RKD-68">
          <mxGeometry relative="1" as="geometry">
            <Array as="points">
              <mxPoint x="625" y="200" />
              <mxPoint x="598" y="200" />
            </Array>
          </mxGeometry>
        </mxCell>
        <mxCell id="D5yejVB-vVZnaP33-RKD-72" style="edgeStyle=orthogonalEdgeStyle;rounded=0;orthogonalLoop=1;jettySize=auto;html=1;exitX=1;exitY=0.5;exitDx=0;exitDy=0;entryX=0;entryY=0.75;entryDx=0;entryDy=0;" edge="1" parent="1" source="D5yejVB-vVZnaP33-RKD-70" target="D5yejVB-vVZnaP33-RKD-2">
          <mxGeometry relative="1" as="geometry" />
        </mxCell>
        <mxCell id="D5yejVB-vVZnaP33-RKD-70" value="filter" style="shape=rhombus;perimeter=rhombusPerimeter;whiteSpace=wrap;html=1;align=center;" vertex="1" parent="1">
          <mxGeometry x="365" y="227.5" width="70" height="25" as="geometry" />
        </mxCell>
        <mxCell id="D5yejVB-vVZnaP33-RKD-73" value="f_city" style="ellipse;whiteSpace=wrap;html=1;align=center;" vertex="1" parent="1">
          <mxGeometry x="290" y="270" width="40" height="20" as="geometry" />
        </mxCell>
        <mxCell id="D5yejVB-vVZnaP33-RKD-74" value="f_cinema" style="ellipse;whiteSpace=wrap;html=1;" vertex="1" parent="1">
          <mxGeometry x="290" y="300" width="60" height="20" as="geometry" />
        </mxCell>
        <mxCell id="D5yejVB-vVZnaP33-RKD-75" value="f_day" style="ellipse;whiteSpace=wrap;html=1;" vertex="1" parent="1">
          <mxGeometry x="325" y="330" width="40" height="20" as="geometry" />
        </mxCell>
        <mxCell id="D5yejVB-vVZnaP33-RKD-76" value="f_rating" style="ellipse;whiteSpace=wrap;html=1;" vertex="1" parent="1">
          <mxGeometry x="370" y="320" width="50" height="20" as="geometry" />
        </mxCell>
        <mxCell id="D5yejVB-vVZnaP33-RKD-78" value="is_released" style="ellipse;whiteSpace=wrap;html=1;" vertex="1" parent="1">
          <mxGeometry x="620" y="49.75" width="80" height="20" as="geometry" />
        </mxCell>
        <mxCell id="D5yejVB-vVZnaP33-RKD-79" style="edgeStyle=orthogonalEdgeStyle;rounded=0;orthogonalLoop=1;jettySize=auto;html=1;exitX=0.75;exitY=0;exitDx=0;exitDy=0;entryX=0.275;entryY=0.963;entryDx=0;entryDy=0;entryPerimeter=0;" edge="1" parent="1" source="D5yejVB-vVZnaP33-RKD-2" target="D5yejVB-vVZnaP33-RKD-78">
          <mxGeometry relative="1" as="geometry">
            <Array as="points">
              <mxPoint x="610" y="90" />
              <mxPoint x="630" y="90" />
              <mxPoint x="630" y="69" />
            </Array>
          </mxGeometry>
        </mxCell>
        <mxCell id="D5yejVB-vVZnaP33-RKD-80" value="" style="edgeStyle=none;orthogonalLoop=1;jettySize=auto;html=1;rounded=0;exitX=0.105;exitY=0.7;exitDx=0;exitDy=0;exitPerimeter=0;entryX=0.717;entryY=0.05;entryDx=0;entryDy=0;entryPerimeter=0;" edge="1" parent="1" source="D5yejVB-vVZnaP33-RKD-70" target="D5yejVB-vVZnaP33-RKD-73">
          <mxGeometry width="100" relative="1" as="geometry">
            <mxPoint x="380" y="270" as="sourcePoint" />
            <mxPoint x="480" y="270" as="targetPoint" />
            <Array as="points" />
          </mxGeometry>
        </mxCell>
        <mxCell id="D5yejVB-vVZnaP33-RKD-81" value="" style="edgeStyle=none;orthogonalLoop=1;jettySize=auto;html=1;rounded=0;exitX=0;exitY=1;exitDx=0;exitDy=0;entryX=0.606;entryY=-0.033;entryDx=0;entryDy=0;entryPerimeter=0;" edge="1" parent="1" source="D5yejVB-vVZnaP33-RKD-70" target="D5yejVB-vVZnaP33-RKD-74">
          <mxGeometry width="100" relative="1" as="geometry">
            <mxPoint x="350" y="270" as="sourcePoint" />
            <mxPoint x="450" y="270" as="targetPoint" />
            <Array as="points" />
          </mxGeometry>
        </mxCell>
        <mxCell id="D5yejVB-vVZnaP33-RKD-82" value="" style="edgeStyle=none;orthogonalLoop=1;jettySize=auto;html=1;rounded=0;exitX=0.419;exitY=0.927;exitDx=0;exitDy=0;exitPerimeter=0;entryX=0.5;entryY=0;entryDx=0;entryDy=0;" edge="1" parent="1" source="D5yejVB-vVZnaP33-RKD-70" target="D5yejVB-vVZnaP33-RKD-75">
          <mxGeometry width="100" relative="1" as="geometry">
            <mxPoint x="350" y="280" as="sourcePoint" />
            <mxPoint x="450" y="280" as="targetPoint" />
            <Array as="points" />
          </mxGeometry>
        </mxCell>
        <mxCell id="D5yejVB-vVZnaP33-RKD-83" value="" style="edgeStyle=none;orthogonalLoop=1;jettySize=auto;html=1;rounded=0;exitX=0.543;exitY=0.98;exitDx=0;exitDy=0;exitPerimeter=0;entryX=0;entryY=0;entryDx=0;entryDy=0;" edge="1" parent="1" source="D5yejVB-vVZnaP33-RKD-70" target="D5yejVB-vVZnaP33-RKD-76">
          <mxGeometry width="100" relative="1" as="geometry">
            <mxPoint x="370" y="270" as="sourcePoint" />
            <mxPoint x="470" y="270" as="targetPoint" />
            <Array as="points" />
          </mxGeometry>
        </mxCell>
        <mxCell id="D5yejVB-vVZnaP33-RKD-84" value="f_genre" style="ellipse;whiteSpace=wrap;html=1;" vertex="1" parent="1">
          <mxGeometry x="420" y="340" width="50" height="20" as="geometry" />
        </mxCell>
        <mxCell id="D5yejVB-vVZnaP33-RKD-85" value="" style="edgeStyle=none;orthogonalLoop=1;jettySize=auto;html=1;rounded=0;exitX=0.7;exitY=0.873;exitDx=0;exitDy=0;exitPerimeter=0;entryX=0.013;entryY=0.4;entryDx=0;entryDy=0;entryPerimeter=0;" edge="1" parent="1" source="D5yejVB-vVZnaP33-RKD-70" target="D5yejVB-vVZnaP33-RKD-84">
          <mxGeometry width="100" relative="1" as="geometry">
            <mxPoint x="420" y="280" as="sourcePoint" />
            <mxPoint x="520" y="280" as="targetPoint" />
            <Array as="points" />
          </mxGeometry>
        </mxCell>
        <mxCell id="D5yejVB-vVZnaP33-RKD-86" value="f_is_released" style="ellipse;whiteSpace=wrap;html=1;" vertex="1" parent="1">
          <mxGeometry x="440" y="290" width="80" height="20" as="geometry" />
        </mxCell>
        <mxCell id="D5yejVB-vVZnaP33-RKD-87" value="" style="edgeStyle=none;orthogonalLoop=1;jettySize=auto;html=1;rounded=0;exitX=0.795;exitY=0.727;exitDx=0;exitDy=0;exitPerimeter=0;entryX=0.021;entryY=0.35;entryDx=0;entryDy=0;entryPerimeter=0;" edge="1" parent="1" source="D5yejVB-vVZnaP33-RKD-70" target="D5yejVB-vVZnaP33-RKD-86">
          <mxGeometry width="100" relative="1" as="geometry">
            <mxPoint x="370" y="250" as="sourcePoint" />
            <mxPoint x="470" y="250" as="targetPoint" />
            <Array as="points" />
          </mxGeometry>
        </mxCell>
        <mxCell id="D5yejVB-vVZnaP33-RKD-88" value="f_year" style="ellipse;whiteSpace=wrap;html=1;" vertex="1" parent="1">
          <mxGeometry x="430" y="310" width="50" height="20" as="geometry" />
        </mxCell>
        <mxCell id="D5yejVB-vVZnaP33-RKD-89" value="" style="edgeStyle=none;orthogonalLoop=1;jettySize=auto;html=1;rounded=0;exitX=1;exitY=1;exitDx=0;exitDy=0;entryX=0.073;entryY=0.35;entryDx=0;entryDy=0;entryPerimeter=0;" edge="1" parent="1" source="D5yejVB-vVZnaP33-RKD-70" target="D5yejVB-vVZnaP33-RKD-88">
          <mxGeometry width="100" relative="1" as="geometry">
            <mxPoint x="450" y="330" as="sourcePoint" />
            <mxPoint x="550" y="330" as="targetPoint" />
            <Array as="points" />
          </mxGeometry>
        </mxCell>
        <mxCell id="D5yejVB-vVZnaP33-RKD-90" value="&lt;u&gt;movie_id&lt;/u&gt;" style="ellipse;whiteSpace=wrap;html=1;" vertex="1" parent="1">
          <mxGeometry x="485" y="89.75" width="80" height="20" as="geometry" />
        </mxCell>
        <mxCell id="D5yejVB-vVZnaP33-RKD-93" value="r_comment" style="ellipse;whiteSpace=wrap;html=1;" vertex="1" parent="1">
          <mxGeometry x="365" y="192.5" width="70" height="20" as="geometry" />
        </mxCell>
        <mxCell id="D5yejVB-vVZnaP33-RKD-94" value="" style="edgeStyle=none;orthogonalLoop=1;jettySize=auto;html=1;rounded=0;exitX=0.575;exitY=0.983;exitDx=0;exitDy=0;exitPerimeter=0;entryX=0.587;entryY=0.05;entryDx=0;entryDy=0;entryPerimeter=0;" edge="1" parent="1" source="D5yejVB-vVZnaP33-RKD-40" target="D5yejVB-vVZnaP33-RKD-93">
          <mxGeometry width="100" relative="1" as="geometry">
            <mxPoint x="380" y="170" as="sourcePoint" />
            <mxPoint x="480" y="170" as="targetPoint" />
            <Array as="points" />
          </mxGeometry>
        </mxCell>
        <mxCell id="D5yejVB-vVZnaP33-RKD-101" value="" style="edgeStyle=none;orthogonalLoop=1;jettySize=auto;html=1;rounded=0;exitX=0.995;exitY=0.076;exitDx=0;exitDy=0;exitPerimeter=0;entryX=-0.01;entryY=0.583;entryDx=0;entryDy=0;entryPerimeter=0;" edge="1" parent="1" source="D5yejVB-vVZnaP33-RKD-2" target="D5yejVB-vVZnaP33-RKD-54">
          <mxGeometry width="100" relative="1" as="geometry">
            <mxPoint x="680" y="130" as="sourcePoint" />
            <mxPoint x="780" y="130" as="targetPoint" />
            <Array as="points" />
          </mxGeometry>
        </mxCell>
        <mxCell id="D5yejVB-vVZnaP33-RKD-113" style="edgeStyle=orthogonalEdgeStyle;rounded=0;orthogonalLoop=1;jettySize=auto;html=1;exitX=0.5;exitY=1;exitDx=0;exitDy=0;entryX=0.5;entryY=0;entryDx=0;entryDy=0;" edge="1" parent="1" source="D5yejVB-vVZnaP33-RKD-103" target="D5yejVB-vVZnaP33-RKD-112">
          <mxGeometry relative="1" as="geometry" />
        </mxCell>
        <mxCell id="D5yejVB-vVZnaP33-RKD-103" value="credit_cards" style="ellipse;whiteSpace=wrap;html=1;" vertex="1" parent="1">
          <mxGeometry x="40" y="280" width="80" height="20" as="geometry" />
        </mxCell>
        <mxCell id="D5yejVB-vVZnaP33-RKD-106" value="card_number" style="ellipse;whiteSpace=wrap;html=1;" vertex="1" parent="1">
          <mxGeometry x="-40" y="252.5" width="80" height="20" as="geometry" />
        </mxCell>
        <mxCell id="D5yejVB-vVZnaP33-RKD-107" value="" style="edgeStyle=none;orthogonalLoop=1;jettySize=auto;html=1;rounded=0;entryX=0.911;entryY=0.81;entryDx=0;entryDy=0;entryPerimeter=0;exitX=0.038;exitY=0.29;exitDx=0;exitDy=0;exitPerimeter=0;" edge="1" parent="1" source="D5yejVB-vVZnaP33-RKD-103" target="D5yejVB-vVZnaP33-RKD-106">
          <mxGeometry width="100" relative="1" as="geometry">
            <mxPoint x="-30" y="280" as="sourcePoint" />
            <mxPoint x="70" y="280" as="targetPoint" />
            <Array as="points" />
          </mxGeometry>
        </mxCell>
        <mxCell id="D5yejVB-vVZnaP33-RKD-108" value="expiration_month" style="ellipse;whiteSpace=wrap;html=1;" vertex="1" parent="1">
          <mxGeometry x="-100" y="280" width="117" height="20" as="geometry" />
        </mxCell>
        <mxCell id="D5yejVB-vVZnaP33-RKD-109" value="" style="edgeStyle=none;orthogonalLoop=1;jettySize=auto;html=1;rounded=0;entryX=1;entryY=0.5;entryDx=0;entryDy=0;exitX=0.045;exitY=0.723;exitDx=0;exitDy=0;exitPerimeter=0;" edge="1" parent="1" target="D5yejVB-vVZnaP33-RKD-108" source="D5yejVB-vVZnaP33-RKD-103">
          <mxGeometry width="100" relative="1" as="geometry">
            <mxPoint x="40" y="316.75" as="sourcePoint" />
            <mxPoint x="67" y="310.75" as="targetPoint" />
            <Array as="points" />
          </mxGeometry>
        </mxCell>
        <mxCell id="D5yejVB-vVZnaP33-RKD-110" value="expiration_year" style="ellipse;whiteSpace=wrap;html=1;" vertex="1" parent="1">
          <mxGeometry x="-57" y="310" width="97" height="20" as="geometry" />
        </mxCell>
        <mxCell id="D5yejVB-vVZnaP33-RKD-111" value="" style="edgeStyle=none;orthogonalLoop=1;jettySize=auto;html=1;rounded=0;entryX=1;entryY=0.5;entryDx=0;entryDy=0;exitX=0.119;exitY=0.858;exitDx=0;exitDy=0;exitPerimeter=0;" edge="1" parent="1" target="D5yejVB-vVZnaP33-RKD-110" source="D5yejVB-vVZnaP33-RKD-103">
          <mxGeometry width="100" relative="1" as="geometry">
            <mxPoint x="64" y="314" as="sourcePoint" />
            <mxPoint x="87" y="330.75" as="targetPoint" />
            <Array as="points" />
          </mxGeometry>
        </mxCell>
        <mxCell id="D5yejVB-vVZnaP33-RKD-112" value="cvv" style="ellipse;whiteSpace=wrap;html=1;" vertex="1" parent="1">
          <mxGeometry x="44" y="320" width="38" height="20" as="geometry" />
        </mxCell>
        <mxCell id="D5yejVB-vVZnaP33-RKD-114" value="coupons" style="ellipse;whiteSpace=wrap;html=1;align=center;" vertex="1" parent="1">
          <mxGeometry x="110" y="310" width="60" height="30" as="geometry" />
        </mxCell>
        <mxCell id="D5yejVB-vVZnaP33-RKD-115" value="tickets" style="ellipse;whiteSpace=wrap;html=1;align=center;" vertex="1" parent="1">
          <mxGeometry x="180" y="320" width="50" height="20" as="geometry" />
        </mxCell>
        <mxCell id="D5yejVB-vVZnaP33-RKD-116" value="" style="edgeStyle=none;orthogonalLoop=1;jettySize=auto;html=1;rounded=0;exitX=0.5;exitY=1;exitDx=0;exitDy=0;entryX=0.802;entryY=0.1;entryDx=0;entryDy=0;entryPerimeter=0;" edge="1" parent="1" source="D5yejVB-vVZnaP33-RKD-13" target="D5yejVB-vVZnaP33-RKD-114">
          <mxGeometry width="100" relative="1" as="geometry">
            <mxPoint x="130" y="310" as="sourcePoint" />
            <mxPoint x="230" y="310" as="targetPoint" />
            <Array as="points" />
          </mxGeometry>
        </mxCell>
        <mxCell id="D5yejVB-vVZnaP33-RKD-117" value="" style="edgeStyle=none;orthogonalLoop=1;jettySize=auto;html=1;rounded=0;exitX=0.637;exitY=0.989;exitDx=0;exitDy=0;exitPerimeter=0;entryX=0;entryY=0;entryDx=0;entryDy=0;" edge="1" parent="1" source="D5yejVB-vVZnaP33-RKD-13" target="D5yejVB-vVZnaP33-RKD-115">
          <mxGeometry width="100" relative="1" as="geometry">
            <mxPoint x="150" y="310" as="sourcePoint" />
            <mxPoint x="250" y="310" as="targetPoint" />
            <Array as="points" />
          </mxGeometry>
        </mxCell>
      </root>
    </mxGraphModel>
  </diagram>
</mxfile>
